
<svg xmlns="http://www.w3.org/2000/svg">
	<symbol
	   id="mail"
       
        viewBox="0 0 32 32"
        fill="none"
        xmlns="http://www.w3.org/2000/svg"
      >
        <path
          d="M6.33333 7H25C26.2833 7 27.3333 8.05 27.3333 9.33333V23.3333C27.3333 24.6167 26.2833 25.6667 25 25.6667H6.33333C5.05 25.6667 4 24.6167 4 23.3333V9.33333C4 8.05 5.05 7 6.33333 7Z"
          stroke="white"
          stroke-width="2"
          stroke-linecap="round"
          stroke-linejoin="round"
        />
        <path
          d="M27.3333 9.33325L15.6667 17.4999L4 9.33325"
          stroke="white"
          stroke-width="2"
          stroke-linecap="round"
          stroke-linejoin="round"
        />
    </symbol>
	<symbol
        id="twitter"
      
        viewBox="0 0 32 32"
        fill="none"
        xmlns="http://www.w3.org/2000/svg"
      >
        <path
          d="M29.8235 8.50339C28.8013 8.95777 27.7012 9.26426 26.5469 9.40142C27.7255 8.69586 28.6292 7.57827 29.0553 6.24505C27.953 6.89924 26.7326 7.37394 25.4327 7.63019C24.3924 6.52163 22.9096 5.82849 21.2688 5.82849C18.1187 5.82849 15.5645 8.3826 15.5645 11.5333C15.5645 11.9798 15.6148 12.415 15.7124 12.8332C10.9711 12.595 6.76713 10.3243 3.95338 6.87271C3.46231 7.71486 3.18122 8.69474 3.18122 9.74121C3.18122 11.7202 4.18818 13.4665 5.71896 14.4893C4.78424 14.4594 3.90427 14.2026 3.13493 13.7753C3.13437 13.799 3.13437 13.8233 3.13437 13.8475C3.13437 16.6111 5.10089 18.9162 7.71088 19.4412C7.23223 19.571 6.72818 19.641 6.20776 19.641C5.83975 19.641 5.48245 19.6054 5.13419 19.5383C5.86063 21.8045 7.96713 23.4544 10.4631 23.5001C8.51069 25.0303 6.05141 25.9424 3.37821 25.9424C2.91819 25.9424 2.46381 25.9153 2.01733 25.8623C4.54265 27.4817 7.54098 28.4254 10.7623 28.4254C21.2558 28.4254 26.9934 19.733 26.9934 12.1943C26.9934 11.9471 26.9883 11.7004 26.9776 11.4554C28.0918 10.6528 29.0593 9.64752 29.8235 8.50339Z"
          fill="white"
        />
    </symbol>
	<symbol
	  id="linkedIn"
    
      viewBox="0 0 32 34"
      fill="none"
      xmlns="http://www.w3.org/2000/svg"
    >
      <g filter="url(#filter0_d_2_231)">
        <path
          d="M10.6667 25.3333H6.66675V12H10.6667V25.3333ZM25.3334 25.3333H21.3334V18.2107C21.3334 16.3547 20.6721 15.4307 19.3614 15.4307C18.3227 15.4307 17.6641 15.948 17.3334 16.984C17.3334 18.6667 17.3334 25.3333 17.3334 25.3333H13.3334C13.3334 25.3333 13.3867 13.3333 13.3334 12H16.4907L16.7347 14.6667H16.8174C17.6374 13.3333 18.9481 12.4293 20.7454 12.4293C22.1121 12.4293 23.2174 12.8093 24.0614 13.764C24.9107 14.72 25.3334 16.0027 25.3334 17.804V25.3333Z"
          fill="white"
        />
        <path
          d="M8.66676 10.6666C9.80815 10.6666 10.7334 9.7712 10.7334 8.66663C10.7334 7.56206 9.80815 6.66663 8.66676 6.66663C7.52538 6.66663 6.6001 7.56206 6.6001 8.66663C6.6001 9.7712 7.52538 10.6666 8.66676 10.6666Z"
          fill="white"
        />
      </g>
      <defs>
        <filter
          id="filter0_d_2_231"
          x="-4"
          y="0"
          width="40"
          height="40"
          filterUnits="userSpaceOnUse"
          color-interpolation-filters="sRGB"
        >
          <feFlood flood-opacity="0" result="BackgroundImageFix" />
          <feColorMatrix
            in="SourceAlpha"
            type="matrix"
            values="0 0 0 0 0 0 0 0 0 0 0 0 0 0 0 0 0 0 127 0"
            result="hardAlpha"
          />
          <feOffset dy="4" />
          <feGaussianBlur stdDeviation="2" />
          <feComposite in2="hardAlpha" operator="out" />
          <feColorMatrix
            type="matrix"
            values="0 0 0 0 0 0 0 0 0 0 0 0 0 0 0 0 0 0 0.25 0"
          />
          <feBlend
            mode="normal"
            in2="BackgroundImageFix"
            result="effect1_dropShadow_2_231"
          />
          <feBlend
            mode="normal"
            in="SourceGraphic"
            in2="effect1_dropShadow_2_231"
            result="shape"
          />
        </filter>
      </defs>
    </symbol>

	<symbol
		id="facebook"
	
		viewBox="0 0 32 32"
		fill="none"
		xmlns="http://www.w3.org/2000/svg"
	>
		<path
		d="M22.8205 12.2705H18.5054V9.44039C18.5054 8.37754 19.2098 8.12975 19.7059 8.12975C20.2009 8.12975 22.7511 8.12975 22.7511 8.12975V3.45729L18.5573 3.44092C13.9018 3.44092 12.8423 6.92579 12.8423 9.15591V12.2705H10.1499V17.0852H12.8423C12.8423 23.2642 12.8423 30.7092 12.8423 30.7092H18.5054C18.5054 30.7092 18.5054 23.1908 18.5054 17.0852H22.3266L22.8205 12.2705Z"
		fill="white"
		/>
	</symbol>
	<symbol
		id="hamburger"
		viewBox='0 0 34 35'
		fill='none'
		xmlns='http://www.w3.org/2000/svg'
		>
		<rect x='1' y='8.83936' width='32' height='2' fill='#C4C4C4' />
		<rect x='1' y='16.8394' width='32' height='2' fill='#C4C4C4' />
		<rect x='1' y='24.8394' width='32' height='2' fill='#C4C4C4' />
		</svg>
	</symbol>
    
	
	

	




</svg>